<svg width="505" height="465" viewBox="0 0 505 465" fill="none" xmlns="http://www.w3.org/2000/svg">
<path fill-rule="evenodd" clip-rule="evenodd" d="M157.312 0.289194C134.742 2.40252 114.417 8.17898 94.771 18.0634C70.3442 30.3528 50.314 47.1093 34.0439 68.8647C16.2258 92.6896 5.3703 119.586 1.23366 150.156C0.197384 157.815 -0.44711 180.481 0.371652 180.481C0.636234 180.481 0.852903 180.299 0.852903 180.078C0.852903 179.856 2.80886 178.1 5.199 176.174C12.8184 170.038 19.5398 164.323 26.1892 158.327C29.7466 155.12 32.9195 152.495 33.2396 152.495C33.5597 152.495 34.0838 152.18 34.4039 151.794C34.7236 151.408 38.2433 148.376 42.2248 145.056C46.2062 141.735 50.9267 137.663 52.7148 136.005C54.5028 134.347 56.2162 132.99 56.5228 132.99C56.8289 132.99 57.7372 132.305 58.5411 131.467C59.3446 130.629 61.5286 128.685 63.3943 127.146C65.2599 125.607 68.1496 123.048 69.8151 121.46C71.481 119.873 73.0634 118.574 73.3314 118.574C73.5993 118.574 74.717 117.746 75.8148 116.734C76.9125 115.722 79.6232 113.453 81.8387 111.691C84.0541 109.93 86.6211 107.705 87.5429 106.746C88.4647 105.789 89.4535 105.005 89.7405 105.005C90.0272 105.005 91.8529 103.621 93.7974 101.931C95.742 100.24 99.9371 96.8866 103.121 94.479C106.304 92.0718 110.573 88.5813 112.607 86.7224C114.642 84.8639 117.185 82.84 118.259 82.2248C119.333 81.6095 121.11 80.2819 122.207 79.2748C123.305 78.2674 124.39 77.4435 124.618 77.4435C124.846 77.4435 126.905 75.8771 129.194 73.9631C131.483 72.0491 134.34 69.8068 135.542 68.9808C139.743 66.0949 142.947 63.6424 145.984 60.9897C147.667 59.5196 149.807 57.9219 150.74 57.4394C151.673 56.9564 153.698 55.5359 155.239 54.2821C156.781 53.0278 158.451 52.0021 158.949 52.0021C159.449 52.0021 159.856 51.8211 159.856 51.6002C159.856 51.3792 161.505 49.9957 163.52 48.526C165.535 47.0563 168.027 45.1385 169.058 44.2637C170.089 43.3894 171.103 42.6736 171.311 42.6736C171.936 42.6736 174.711 40.7651 178.089 38.0111C179.838 36.5851 183.368 34.1716 185.933 32.6472C188.498 31.1233 192.41 28.5876 194.625 27.0132C196.841 25.4388 199.269 24.0306 200.022 23.8839C200.775 23.7376 202.587 22.8701 204.05 21.9567C208.623 19.1001 209.596 19.3079 209.998 23.2288C210.132 24.5446 210.763 26.8343 211.4 28.3171C212.25 30.2981 212.635 32.0811 212.852 35.0412C213.015 37.2567 213.287 39.3841 213.456 39.7687C213.625 40.1532 213.56 40.5938 213.31 40.7477C212.729 41.1073 212.73 43.322 213.312 45.2207C213.813 46.8545 214.166 50.6359 214.122 53.9102C214.096 55.8807 213.935 56.1949 211.84 58.3625C210.6 59.6451 206.275 64.5108 202.229 69.175C198.183 73.8393 193.463 79.182 191.741 81.0477C190.019 82.9134 188.312 85.0123 187.948 85.7119C187.584 86.4116 187.061 87.1748 186.786 87.408C185.933 88.1301 183.322 91.6079 183.041 92.3966C182.895 92.8084 182.31 93.3214 181.742 93.5372C181.175 93.7531 180.359 94.4459 179.93 95.0769C179.179 96.1806 177.965 97.4985 168.25 107.761C165.821 110.326 163.632 112.904 163.385 113.49C163.137 114.075 160.594 117.128 157.732 120.274C147.862 131.125 131.659 149.628 131.374 150.375C131.217 150.787 129.913 152.379 128.478 153.914C124.877 157.763 125.253 158.713 129.116 155.526C130.748 154.179 136.472 149.452 141.836 145.022C150.293 138.037 158.243 131.726 186.926 109.229C190.037 106.789 194.224 103.505 196.23 101.931C198.236 100.357 200.043 99.0686 200.245 99.0686C200.447 99.0686 201.602 98.1464 202.813 97.0193C204.023 95.8923 206.731 93.8031 208.829 92.3763C210.928 90.9494 214.649 88.1933 217.098 86.2513C219.546 84.3097 222.504 82.1692 223.67 81.4954C224.836 80.8212 227.316 79.0917 229.182 77.6512C231.048 76.2108 234.196 73.9114 236.178 72.5418C238.16 71.1718 241.549 68.5661 243.709 66.7509C245.868 64.9357 247.854 63.4507 248.121 63.4507C248.388 63.4507 249.244 63.9375 250.025 64.5324C251.051 65.3156 251.442 65.9495 251.442 66.8293C251.442 67.4976 251.827 68.9435 252.299 70.0417C253.027 71.7416 253.08 72.2454 252.652 73.4288C252.24 74.5665 252.279 75.2682 252.866 77.2972C253.869 80.7657 254.7 91.2993 254.052 92.3368C253.783 92.7681 253.562 93.4173 253.562 93.7794C253.562 95.0951 251.75 98.0476 249.925 99.7047C248.898 100.638 247.512 102.45 246.845 103.733C246.179 105.016 245.271 106.233 244.828 106.439C244.385 106.644 243.354 107.685 242.538 108.751C241.722 109.817 240.339 111.37 239.464 112.203C238.59 113.035 237.874 113.917 237.874 114.163C237.874 114.408 236.643 115.608 235.138 116.829C233.634 118.05 232.272 119.466 232.112 119.977C231.952 120.488 230.273 122.537 228.381 124.531C226.489 126.525 221.794 131.859 217.946 136.383C214.098 140.908 208.655 146.909 205.851 149.719C203.047 152.529 198.471 157.69 195.683 161.188C192.895 164.686 188.273 169.888 185.411 172.747C182.55 175.606 180.209 178.097 180.209 178.282C180.209 178.466 178.396 180.319 176.181 182.4C172.761 185.612 172.153 186.383 172.153 187.507C172.153 189.064 171.038 190.233 169.552 190.233C167.913 190.233 164.521 194.319 164.521 196.294C164.521 196.619 163.595 197.666 162.464 198.62C161.332 199.574 160.183 200.892 159.911 201.548C159.638 202.205 158.725 203.214 157.881 203.791C157.026 204.375 155.316 206.441 154.019 208.455C152.739 210.444 149.658 214.551 147.172 217.583C141.618 224.355 139.688 227.004 138.86 228.986C138.301 230.322 138.299 230.516 138.843 230.516C139.185 230.516 144.482 226.359 150.614 221.278C175.24 200.876 185.579 192.509 186.993 191.837C187.809 191.449 189.431 190.145 190.597 188.938C191.763 187.733 194.911 185.111 197.593 183.114C200.275 181.117 206.19 176.499 210.738 172.851C220.179 165.278 226.094 160.784 230.666 157.709C232.415 156.532 234.228 155.136 234.694 154.606C235.594 153.583 240.182 150.01 244.21 147.195C245.545 146.262 247.575 144.691 248.722 143.704C251.342 141.447 257.34 136.969 261.087 134.469C262.662 133.419 265.954 130.945 268.403 128.971C270.851 126.997 273.729 124.913 274.797 124.34C275.865 123.766 278.359 122.09 280.337 120.617C286.02 116.385 290.397 113.345 292.132 112.425C293.012 111.959 294.516 110.909 295.475 110.093C299.071 107.03 300.128 106.277 300.834 106.277C301.233 106.277 303.079 105.132 304.935 103.733C307.467 101.826 308.66 101.189 309.704 101.189C311.157 101.189 312.5 100.135 312.5 98.9936C312.5 98.6391 313.249 98.0115 314.165 97.5985C315.081 97.1855 316.357 96.2981 317 95.626C317.77 94.822 318.615 94.3955 319.469 94.3781C320.497 94.3573 321.046 93.9706 322.1 92.5234L323.431 90.6946L320.685 85.9082C307.401 62.757 288.027 42.2992 265.553 27.69C242.923 12.9802 218.84 4.24702 191.657 0.892578C185.007 0.0720949 163.641 -0.303165 157.312 0.289194ZM174.393 71.2655C173.41 71.7684 172.158 72.6011 171.61 73.1155C171.062 73.6302 170.327 74.0513 169.976 74.0513C169.625 74.0513 168.315 74.8145 167.065 75.7474C165.814 76.6802 164.668 77.4435 164.517 77.4435C164.365 77.4435 162.826 78.5833 161.095 79.9762C159.365 81.3695 157.613 82.5144 157.203 82.5203C156.36 82.533 150.522 86.9077 122.968 108.175C112.357 116.364 100.145 125.714 95.831 128.952C85.3775 136.799 79.6254 141.469 53.135 163.62C31.1564 181.999 7.37841 202.781 4.91067 205.769L3.66832 207.274L4.63591 211.58C8.69792 229.658 17.5525 250.252 28.1557 266.281C49.3206 298.278 80.1253 322.016 116.395 334.28C127.535 338.046 139.73 340.78 152.224 342.31C160.964 343.38 182.172 343.384 190.801 342.316C212.424 339.64 229.259 334.671 247.838 325.48C281.482 308.837 308.723 281.705 325.565 248.065C336.995 225.234 342.758 201.644 343.32 175.393C343.709 157.194 342.076 142.517 337.889 126.599C336.248 120.355 336.278 120.403 334.53 121.275C333.769 121.655 332.919 121.966 332.641 121.966C332.363 121.966 331.785 122.353 331.356 122.827C330.927 123.301 330.278 123.661 329.912 123.627C328.536 123.497 328.156 123.691 327.764 124.722C327.533 125.331 327.024 125.782 326.568 125.782C326.132 125.782 325.43 126.164 325.008 126.63C324.586 127.097 323.884 127.478 323.448 127.478C322.998 127.478 322.485 127.925 322.262 128.511C321.958 129.312 321.51 129.574 320.275 129.678C319.043 129.78 318.63 130.022 318.452 130.744C318.17 131.897 314.662 133.838 312.862 133.838C311.603 133.838 310.023 134.783 308.073 136.701C307.482 137.281 306.581 137.655 305.773 137.655C304.755 137.655 304.444 137.841 304.444 138.451C304.444 139.421 302.305 140.404 300.96 140.052C300.351 139.893 299.708 140.088 299.155 140.601C298.682 141.038 297.818 141.461 297.235 141.54C296.542 141.633 295.938 142.158 295.489 143.056C294.109 145.82 292.801 146.434 291.262 145.042C290.607 144.449 290.41 144.444 289.533 144.994C288.989 145.336 287.783 145.75 286.855 145.913C284.896 146.258 283.667 146.84 283.667 147.422C283.667 148.087 286.06 147.888 286.652 147.175C287.239 146.468 288.967 146.49 288.967 147.205C288.967 147.444 288.46 148.287 287.839 149.08C286.732 150.495 286.69 150.509 285.628 149.813C283.669 148.529 281.598 149.328 282.083 151.18C282.243 151.795 281.927 152.148 280.755 152.657C279.908 153.026 278.847 153.283 278.396 153.229C277.834 153.162 277.495 153.464 277.314 154.192C277.079 155.132 276.814 155.258 274.952 155.311C271.237 155.415 270.947 155.457 270.947 155.888C270.947 156.121 271.233 156.312 271.583 156.312C271.933 156.312 272.219 156.539 272.219 156.816C272.219 157.504 267.492 161.824 266.74 161.824C266.409 161.824 265.78 162.147 265.344 162.542C264.908 162.937 263.891 163.509 263.084 163.814C262.278 164.119 260.964 164.615 260.165 164.918C259.365 165.22 257.739 166.377 256.551 167.488C255.147 168.802 254.136 169.433 253.659 169.293C250.435 168.347 247.202 168.773 247.202 170.144C247.202 170.838 247.707 170.902 248.323 170.287C248.63 169.98 248.91 170.019 249.238 170.415C250.03 171.369 248.349 173.697 246.868 173.697C246.059 173.697 245.208 174.176 244.234 175.181C243.443 175.997 242.486 176.665 242.107 176.665C241.729 176.665 241.004 177.142 240.497 177.725C239.487 178.887 238.932 179.043 238.471 178.297C238.296 178.014 238.731 177.346 239.509 176.707C241.116 175.386 241.188 174.969 239.811 174.969C238.708 174.969 235.754 178.111 235.754 179.285C235.754 180.164 233.954 181.753 232.959 181.753C232.045 181.753 230.305 183.527 229.513 185.266C229.056 186.268 228.747 186.388 226.349 186.502L223.691 186.629L222.981 188.537C222.237 190.54 222.31 190.509 219.218 190.146C218.431 190.054 218.124 190.24 218.028 190.869C217.947 191.398 217.227 192.011 216.119 192.496C212.915 193.9 212.434 194.187 212.434 194.697C212.434 194.974 211.276 195.915 209.862 196.788C207.026 198.539 199.842 203.799 196.533 206.547C195.367 207.515 193.364 208.951 192.081 209.737C190.798 210.523 189.306 211.704 188.765 212.361C188.223 213.017 187.59 213.555 187.358 213.555C186.76 213.555 184.323 215.418 180.633 218.698C178.884 220.253 176.642 221.945 175.651 222.459C174.66 222.973 173.849 223.647 173.849 223.958C173.849 224.268 173.454 224.648 172.971 224.801C172.489 224.954 170.45 226.398 168.442 228.009C166.433 229.621 164.572 230.94 164.305 230.94C164.038 230.94 163.358 231.44 162.792 232.053C162.227 232.665 159.57 234.836 156.888 236.877C154.206 238.918 150.904 241.566 149.55 242.76C148.195 243.955 146.891 244.932 146.653 244.932C146.414 244.932 143.802 247.211 140.848 249.996C137.893 252.781 134.87 255.5 134.129 256.038C132.697 257.078 129.292 259.774 126.698 261.92C125.834 262.634 125.024 263.547 124.896 263.948C124.769 264.35 124.044 265.045 123.286 265.492C122.528 265.94 118.864 269.431 115.143 273.249C107.011 281.595 105.392 282.967 104.524 282.247C104.185 281.966 103.481 280.372 102.958 278.705C102.436 277.038 101.573 275.01 101.04 274.198C100.507 273.386 100.071 272.462 100.071 272.144C100.071 271.827 99.6895 271.082 99.2231 270.489C98.5947 269.691 98.3751 268.769 98.3751 266.932C98.3751 265.006 98.0766 263.848 97.0352 261.736L95.6953 259.019L97.7653 255.474C98.9038 253.524 100.618 251.07 101.574 250.021C102.53 248.971 103.761 247.349 104.308 246.416C104.856 245.484 106.702 242.963 108.411 240.815C110.121 238.667 111.519 236.644 111.519 236.321C111.519 235.997 112.981 233.938 114.768 231.746C116.555 229.553 123.122 220.948 129.361 212.624C140.422 197.866 145.294 191.694 153.054 182.609C155.141 180.165 157.095 177.685 157.394 177.097C157.694 176.51 158.723 175.17 159.681 174.121C160.64 173.071 162.598 170.929 164.032 169.361C165.467 167.793 166.641 166.319 166.641 166.086C166.641 165.853 169.04 163.057 171.972 159.873C174.905 156.688 181.953 148.7 187.635 142.121C193.317 135.543 199.79 128.241 202.019 125.896C204.249 123.551 206.073 121.445 206.073 121.216C206.073 120.987 207.328 119.4 208.863 117.689C212.317 113.836 212.779 113.061 211.619 113.061C210.242 113.061 207.69 115.074 206.77 116.886C206.037 118.328 205.713 118.574 204.544 118.574C203.335 118.574 202.884 118.957 200.675 121.86C199.299 123.667 197.573 125.528 196.839 125.994C196.106 126.46 195.499 127.147 195.49 127.518C195.455 128.961 193.843 129.786 191.035 129.798C188.996 129.807 188.139 130.006 187.452 130.627C186.836 131.184 186.687 131.582 186.983 131.878C187.222 132.117 187.417 132.523 187.417 132.781C187.417 133.367 183.792 135.959 182.973 135.959C182.641 135.959 181.415 136.913 180.249 138.079C179.064 139.263 177.74 140.199 177.248 140.199C176.054 140.199 173.223 141.411 173.581 141.769C173.739 141.926 173.06 142.878 172.074 143.883C170.636 145.349 169.986 145.711 168.795 145.711C167.62 145.711 166.928 146.084 165.491 147.495C163.555 149.395 163.287 149.951 164.309 149.951C164.658 149.951 164.945 150.142 164.945 150.375C164.945 150.609 164.45 150.799 163.846 150.799C163.203 150.799 162.028 151.415 161.014 152.283C160.06 153.1 159.05 153.768 158.77 153.768C158.489 153.768 158.165 154.129 158.049 154.571C157.92 155.066 157.292 155.49 156.41 155.678C154.727 156.036 153.496 157.011 153.496 157.987C153.496 158.369 152.56 159.246 151.417 159.935C148.26 161.837 143.183 165.79 141.351 167.774C140.452 168.747 139.033 169.893 138.198 170.32C136.208 171.337 128.431 177.547 123.543 182.021C121.41 183.972 119.463 185.569 119.216 185.569C118.968 185.569 117.66 186.65 116.309 187.972C114.957 189.293 112.855 191.013 111.637 191.793C110.42 192.574 109.236 193.562 109.007 193.99C108.778 194.418 106.657 196.551 104.294 198.73C100.776 201.974 99.8697 202.612 99.2922 202.252C98.9042 202.01 98.0074 200.113 97.2993 198.037C96.0752 194.45 95.4464 193.133 93.4989 190.079C92.7328 188.878 92.6878 188.407 93.0317 185.207C93.365 182.109 93.3031 181.339 92.5369 179.059C90.9583 174.361 90.7102 175.133 96.4967 166.738C102.994 157.311 104.853 154.834 107.643 151.884C108.842 150.616 109.823 149.371 109.823 149.118C109.823 148.865 110.92 147.438 112.261 145.947C113.602 144.456 115.558 142.101 116.607 140.715C117.657 139.329 121.855 134.304 125.936 129.55C130.017 124.796 133.642 120.349 133.992 119.667C134.342 118.986 143.324 108.755 153.952 96.9311C164.58 85.1073 173.604 74.7408 174.006 73.8944C174.408 73.0476 174.912 72.3552 175.126 72.3552C175.521 72.3552 176.579 70.685 176.321 70.4687C176.244 70.4043 175.376 70.763 174.393 71.2655ZM172.577 416.873V464.576H186.781H200.985V451.007V437.439H238.51H276.035V425.354V413.269H238.722H201.409V403.517V393.764H238.934H276.459V381.468V369.171H224.518H172.577V416.873ZM285.363 417.085V465H299.355H313.348V451.219V437.439H344.314C374.582 437.439 375.339 437.419 377.917 436.554C388.69 432.939 395.891 425.377 399.079 414.329C399.936 411.358 400.057 410.016 400.052 403.517C400.045 395.069 399.612 392.842 396.874 387.192C393.041 379.28 386.283 373.69 376.653 370.463L372.796 369.171H329.079H285.363V417.085ZM406.91 380.688C406.756 387.023 406.63 408.585 406.63 428.603V465H455.815H505V452.703V440.407H468.747H432.494V404.789V369.171H419.842H407.19L406.91 380.688ZM369.105 394.862C370.038 395.349 371.357 396.535 372.036 397.496C373.084 398.979 373.301 399.755 373.466 402.597C373.684 406.375 373.187 408.397 371.562 410.327C369.353 412.953 370.665 412.845 340.718 412.845H313.348V403.293V393.74L340.378 393.858C366.851 393.974 367.444 393.994 369.105 394.862Z" fill="white"/>
</svg>
