<svg width="495" height="276" viewBox="0 0 495 276" fill="none" xmlns="http://www.w3.org/2000/svg">
<path fill-rule="evenodd" clip-rule="evenodd" d="M455.151 273.6V261.5L440.451 246.6H449.351L458.951 256.7L468.751 246.6H476.451L461.751 261.3V273.6H455.151ZM434.751 251.5H414.151V268.4H434.751V262.7H424.051V257.9H441.151C440.551 263.7 443.851 275 434.151 273.7H414.451C409.151 273.6 407.451 272.6 407.351 267.3V252.9C407.451 247.7 409.051 246.6 414.451 246.6H434.051C439.451 246.6 441.151 248.2 441.051 253.3L434.651 254.4V251.5H434.751ZM376.951 273.6V263.4H383.151L394.451 273.6H403.851L391.051 263.4C395.151 263.6 401.551 263.7 401.051 258.2C400.751 255.5 402.051 249.8 399.551 247.8C396.951 245.3 373.951 247.1 370.351 246.6V273.6H376.951ZM394.351 251.7C395.351 252.7 395.351 257.3 394.351 258.3C393.251 259.3 378.551 258.6 376.951 258.8V251.2C378.651 251.4 393.251 250.7 394.351 251.7ZM336.751 273.6V246.6H365.751V251.3H343.351V257.3H356.351V261.9H343.351V268.5H366.051V273.5L336.751 273.6ZM296.351 273.6V246.6H300.851L323.751 264.5V246.6H329.751V273.6H325.251L302.351 255.4V273.6H296.351ZM258.251 273.6V240.6H291.951V246.2H265.851V253.7H281.151V259.3H265.851V267.5H292.251V273.7L258.251 273.6Z" fill="white"/>
<path fill-rule="evenodd" clip-rule="evenodd" d="M136.951 161.5C128.051 162.3 122.751 162.7 122.751 177V217.7C-27.2492 293.8 -47.6492 54 105.451 99.5C107.051 99.5 113.751 98.5 114.951 92.8H119.451L121.051 135.4H116.451C110.951 120.9 100.451 100.8 72.1508 100.8C13.3508 95.1 -0.249199 225.1 75.5508 224.1C89.2508 224.1 103.251 219.4 103.251 212.2V179.4C103.251 162.6 99.2508 162.4 85.4508 161.4V157.7H136.951V161.5ZM448.651 9.5L462.851 0L286.351 178.3L332.051 230.9H309.151L275.051 191.9L197.251 268.5L185.551 275.7L272.251 187.8L223.551 136.9H246.251L283.451 174.4L448.651 9.5ZM415.651 216.6C407.851 223.3 399.251 221.7 400.751 208.7C397.351 184.3 414.751 136.2 370.651 136.9C344.151 135.4 325.551 163.4 346.351 168.2C355.651 167.8 356.051 159.3 354.451 151.6C356.651 137.4 385.451 136.8 384.351 158.5V170.8C297.351 194.2 339.151 260.2 384.551 217C385.951 237.2 404.351 235.3 415.651 221.7V216.6ZM384.351 205.1C384.351 211.2 383.751 213.6 377.551 216.6C346.551 231.9 336.551 187.5 384.351 175.8V205.1ZM221.051 196.8C206.051 226.3 160.251 230.5 157.551 174H220.451C216.451 118.6 143.751 125.8 143.651 186.7C144.651 252.4 215.351 237.1 224.251 198.2L221.051 196.8ZM158.151 167.5C161.351 149.7 169.251 144.3 180.451 144.3C196.451 144.3 198.451 157.8 199.851 167.5H158.151Z" fill="white"/>
<path d="M494.251 253.3C494.651 262.8 479.651 263.3 479.551 253.7C479.051 244.1 494.251 243.6 494.251 253.3ZM481.351 253.3C481.051 260.7 492.751 260.7 492.351 253.3C493.251 245.4 480.551 245.4 481.351 253.3ZM485.751 257H484.051V249.8C486.751 248.7 493.051 250.7 488.551 253.4V253.5C489.951 253.8 489.751 255.9 490.351 257H488.651C488.051 255.5 488.051 253.7 485.851 254.2L485.751 257ZM485.751 253C488.951 253.5 488.951 250.2 485.751 251V253Z" fill="white"/>
</svg>
