<svg width="688" height="300" viewBox="0 0 688 300" fill="none" xmlns="http://www.w3.org/2000/svg">
<path fill-rule="evenodd" clip-rule="evenodd" d="M326.025 0.795003C310.431 4.27405 299.845 14.2595 295.424 29.6601C293.733 35.551 293.586 48.7259 295.146 54.5381C298.875 68.4267 308.349 78.165 322.009 82.1498C328.656 84.0881 342.355 84.3921 349.234 82.7526C360.058 80.1735 369.45 73.1683 375.105 63.4575C376.573 60.9353 377.775 58.6728 377.775 58.4292C377.775 58.1855 373.268 57.9861 367.76 57.9861H357.744L356.585 59.8538C354.728 62.8466 351.867 65.2758 348.162 67.0061C344.937 68.5123 344.225 68.6175 337.225 68.6175C329.94 68.6175 329.636 68.5669 325.942 66.7498C323.743 65.6677 321.128 63.7776 319.724 62.2559C316.85 59.1394 314.11 53.568 313.591 49.7838L313.219 47.0674H346.447H379.676L379.318 40.8897C378.138 20.5234 368.019 6.63077 350.741 1.65758C345.069 0.0255212 331.584 -0.445133 326.025 0.795003ZM427.225 0.767994C420.506 2.63912 414.649 7.0951 410.184 13.7302L407.675 17.4598V9.55009V1.63977L398.331 1.7978L388.987 1.95583V41.8953V81.8349L398.331 81.9929L407.675 82.1509L407.685 61.5921C407.696 39.3473 408.034 35.9303 410.762 30.552C412.651 26.8252 417.244 22.7451 421.359 21.1377C423.896 20.1464 426.198 19.8005 431.537 19.6074C435.815 19.4528 438.598 19.1086 438.86 18.7023C439.092 18.3414 439.286 14.1331 439.291 9.3501C439.3 0.813393 439.276 0.646739 438.006 0.306534C435.896 -0.258365 430.005 -0.00666035 427.225 0.767994ZM471.787 0.594444C458.572 1.85872 449.726 7.15544 445.621 16.2622C444.263 19.2741 442.75 24.6214 442.75 26.4074C442.75 26.7292 446.395 26.9539 451.617 26.9539H460.484L460.879 25.0863C462.42 17.8144 468.597 14.3112 479.88 14.3112C490.035 14.3112 495.595 16.2697 497.806 20.6263C499.435 23.8341 499.474 26.8988 497.912 28.8825C496.002 31.3099 490.84 32.48 473.512 34.4114C460.934 35.8142 456.12 36.8164 451.638 38.9663C446.674 41.3471 443.671 44.213 441.48 48.6598C439.658 52.3595 439.587 52.76 439.587 59.4107C439.587 65.8068 439.71 66.5837 441.24 69.8944C444.176 76.2468 450.069 80.6947 458.275 82.7509C462.144 83.7198 474.294 83.7226 479.55 82.7555C487.184 81.351 493.811 78.6075 498.221 75.025L499.93 73.6372L501.385 76.587C502.59 79.0287 503.377 79.808 505.961 81.1165C508.9 82.6055 509.525 82.6969 516.74 82.6969H524.4V75.3003V67.9037L521.585 67.5302C520.037 67.325 518.421 66.7354 517.992 66.2199C517.374 65.4769 517.153 60.321 516.925 41.377C516.648 18.3465 516.591 17.3725 515.385 14.7612C511.469 6.29114 502.536 1.80297 487.025 0.512841C479.623 -0.103205 479.051 -0.0997567 471.787 0.594444ZM0 41.8953V82.1222H3.45H6.9V47.6081C6.9 27.3625 7.11332 13.2257 7.41635 13.413C7.7004 13.5883 20.5568 29.1199 35.9864 47.9271L64.04 82.1222H67.9575H71.875V41.8678V1.61391L68.2812 1.78458L64.6875 1.95583L64.4 36.1745L64.1125 70.3932L35.9375 36.0395L7.7625 1.68574L3.88125 1.67712L0 1.6685V41.8953ZM85.1 41.8907V82.1222H121.592H158.084L172.828 64.5747C183.736 51.5923 187.754 47.1789 188.275 47.6104C188.661 47.9311 195.296 55.8236 203.02 65.1493L217.062 82.1061L221.519 82.1141C223.969 82.1187 225.969 81.9279 225.961 81.6912C225.953 81.4544 218.453 72.2459 209.294 61.2289L192.64 41.1977L195.827 37.3802C197.579 35.2803 204.756 26.6436 211.775 18.1868L224.537 2.81152L224.711 5.68774L224.885 8.56453H240.667H256.45V45.3709V82.1768L260.044 82.0061L263.637 81.8349L263.785 45.1997L263.934 8.56453H279.454H294.975V5.11652V1.6685H255.639H216.303L202.034 18.6505C191.06 31.7116 187.629 35.4533 187.176 34.8551C186.853 34.4275 180.558 26.7856 173.188 17.873L159.789 1.6685H155.22C152.706 1.6685 150.65 1.80067 150.65 1.96216C150.65 2.12364 157.572 10.5994 166.031 20.7975C174.491 30.9956 181.762 39.7788 182.189 40.315C182.88 41.1822 181.123 43.5021 166.377 61.2008L149.787 81.1113L149.614 78.1685L149.44 75.2262H120.72H92V59.4228V43.6194H119.312H146.625V40.4587V37.298H119.312H92V22.9364V8.57545L120.319 8.42604L148.637 8.2772V5.11652V1.95583L116.869 1.80757L85.1 1.65873V41.8907ZM341.633 14.5658C348.294 15.9766 352.969 18.9281 356.105 23.7013C357.939 26.4936 359.95 31.4042 359.95 33.0903C359.95 33.7075 355.585 33.85 336.662 33.85C323.854 33.85 313.375 33.6316 313.375 33.3655C313.375 32.1656 315.69 26.3327 316.972 24.3036C320.061 19.4137 326.314 15.3238 332.224 14.3285C336.263 13.6486 337.443 13.6785 341.633 14.5658ZM498.441 48.935C498.258 54.6122 498.036 55.8006 496.619 58.6895C493.819 64.3977 488.219 68.0457 479.57 69.7973C470.728 71.5879 463.136 69.8622 460.174 65.3878C458.205 62.4156 457.752 56.8396 459.245 53.9749C460.425 51.7113 463.186 49.6649 466.257 48.7764C467.401 48.446 473.639 47.3863 480.118 46.4226C486.598 45.4589 493.196 44.2095 494.781 43.6464C496.366 43.0838 497.884 42.5884 498.156 42.5464C498.427 42.5045 498.555 45.3796 498.441 48.935ZM537.427 103.153C513.229 107.523 493.725 125.659 487.536 149.544C486.356 154.098 485.29 167.173 486.099 167.173C486.311 167.173 491.199 163.187 496.961 158.314C510.487 146.876 523.926 136.122 536.269 126.858C546.076 119.497 560.313 109.706 561.21 109.706C561.743 109.706 562.741 113.974 563.28 118.559L563.643 121.643L547.97 139.83C539.349 149.833 532.396 158.101 532.517 158.203C532.638 158.306 542.439 151.041 554.296 142.06L575.854 125.73L576.864 130.747C577.709 134.949 577.749 135.912 577.106 136.672C576.684 137.17 572.855 141.586 568.597 146.485C549.099 168.918 535.581 185.033 536.993 184.162C537.42 183.897 542.331 180.029 547.904 175.567C567.194 160.121 587.645 144.962 598 138.435C600.688 136.74 602.997 135.27 603.132 135.168C603.266 135.066 601.844 132.722 599.971 129.959C590.15 115.471 575.179 105.876 558.037 103.083C551.667 102.045 543.407 102.074 537.427 103.153ZM340.975 108.804C325.83 112.006 314.969 121.501 310.246 135.667C306.376 147.276 307.095 158.989 312.36 170.047C314.237 173.992 315.581 175.82 319.349 179.556C326.46 186.607 334.593 190.278 345.15 191.204C359.163 192.432 370.378 188.909 378.66 180.678C383.229 176.137 385.696 171.876 387.488 165.428C388.453 161.955 390.407 151.159 390.422 149.215C390.423 148.977 381.627 148.784 370.875 148.784H351.325V151.935V155.087L366.992 155.24L382.659 155.393L382.462 157.691C382.159 161.241 379.819 168.012 377.821 171.125C375.432 174.845 370.593 179.357 367.09 181.13C355.333 187.08 339.142 185.91 328.532 178.343C314.823 168.567 311.026 146.691 320.296 130.91C324.514 123.73 332.784 117.706 341.116 115.743C345.87 114.623 355.882 114.633 360.26 115.763C370.744 118.467 378.094 124.921 380.686 133.699L381.407 136.141H385.053C387.059 136.141 388.7 135.923 388.7 135.657C388.7 134.648 386.49 128.808 384.963 125.784C382.608 121.119 376.005 114.874 370.797 112.388C368.468 111.277 365.01 109.945 363.112 109.43C358.348 108.136 345.811 107.781 340.975 108.804ZM0 149.646V189.585H32.2H64.4V186.425V183.264H35.9375H7.475V167.461V151.657H34.5H61.525V148.209V144.761H34.5H7.475V130.682V116.602H35.65H63.825V113.154V109.706H31.9125H0V149.646ZM73.025 149.621V189.585H76.7579H80.4908L80.6392 155.398L80.7875 121.209L108.839 155.398L136.89 189.585H140.895H144.9V149.646V109.706H141.455H138.009L137.861 144.213L137.712 178.719L109.517 144.357L81.3211 109.994L77.1731 109.825L73.025 109.656V149.621ZM158.125 149.646V189.585H190.325H222.525V186.425V183.264H194.062H165.6V167.461V151.657H192.654H219.707L219.535 148.353L219.362 145.048L192.481 144.899L165.6 144.75V130.682V116.613L193.631 116.464L221.662 116.315L221.835 113.011L222.007 109.706H190.066H158.125V149.646ZM231.15 149.608V189.585H234.887H238.625V172.026V154.466L259.756 154.675C282.84 154.904 283.953 155.047 287.093 158.184C289.767 160.857 290.34 163.309 290.96 174.72C291.263 180.293 291.837 185.853 292.237 187.076L292.964 189.298L296.844 189.468C298.979 189.561 300.725 189.528 300.725 189.395C300.725 189.261 300.309 188.157 299.802 186.942C299.146 185.375 298.738 181.645 298.397 174.086C298.132 168.229 297.657 162.589 297.342 161.55C296.098 157.453 292.982 153.812 289.012 151.817L286.786 150.699L289.347 149.198C296.845 144.807 300.752 135.757 299.062 126.696C297.526 118.469 292.946 113.573 284.337 110.956C282.008 110.247 276.695 110.038 256.306 109.856L231.15 109.63V149.608ZM388.326 110.137C388.473 110.374 396.766 120.783 406.754 133.268L424.913 155.967L424.919 171.914L424.925 187.861H428.662H432.4L432.407 172.202L432.415 156.542L450.789 133.555C460.895 120.912 469.172 110.374 469.182 110.137C469.192 109.901 467.258 109.706 464.884 109.706H460.569L444.726 129.584L428.883 149.461L425.323 144.939C423.364 142.452 416.355 133.507 409.745 125.062L397.727 109.706H392.892C390.233 109.706 388.178 109.901 388.326 110.137ZM282.408 117.733C288.532 119.628 291.454 123.262 291.964 129.619C292.507 136.372 290.1 141.803 285.325 144.599C280.71 147.302 277.822 147.616 257.456 147.625L238.625 147.634V132.118V116.602H258.69C277.022 116.602 279.069 116.7 282.408 117.733ZM537.625 138.532C517.759 153.175 497.891 168.864 489.829 176.277L486.917 178.954L487.827 182.46C488.328 184.389 489.12 186.882 489.588 188.002L490.439 190.037L495.201 190.428C497.819 190.642 504.598 191.316 510.262 191.925C515.927 192.535 521.114 193.033 521.788 193.033C522.7 193.033 527.379 187.764 540.029 172.489C561.044 147.114 562.489 145.336 562.102 145.336C561.747 145.336 537.431 164.36 528.606 171.542L522.75 176.309L521.35 173.896C520.58 172.569 519.519 170.639 518.993 169.608L518.037 167.731L525.674 158.401C532.525 150.031 541.829 138.973 547.665 132.262C548.833 130.918 549.705 129.825 549.601 129.832C549.498 129.839 544.108 133.754 537.625 138.532ZM597.712 153.782C575.676 166.065 555.123 179.079 541.177 189.58C536.078 193.42 534.917 194.54 535.73 194.841C536.298 195.051 542.972 196.169 550.562 197.326C558.152 198.482 571.503 200.834 580.23 202.553C588.957 204.27 596.259 205.676 596.456 205.676C597.186 205.676 602.834 196.716 604.952 192.199C606.155 189.633 607.839 184.956 608.694 181.807C610.061 176.77 610.255 174.973 610.306 166.886C610.349 159.862 610.116 156.642 609.319 153.249C608.746 150.805 608.099 148.7 607.882 148.569C607.665 148.44 603.089 150.785 597.712 153.782ZM401.637 191.117C315.212 194.508 232.241 211.625 150.65 242.897C114.847 256.619 75.7332 275.368 45.1375 293.473C34.6092 299.703 32.4553 301.352 38.2375 298.755C77.4065 281.161 124.257 263.859 167.9 250.87C287.31 215.331 413.201 201.78 536.762 211.165C573.165 213.93 611.175 218.993 644.862 225.566C655.467 227.635 678.039 232.603 683.648 234.103C690.351 235.896 686.702 234.342 675.814 230.768C604.796 207.456 534.835 194.635 460.575 191.324C449.149 190.814 412.631 190.686 401.637 191.117Z" fill="white"/>
</svg>
