<svg width="731" height="112" viewBox="0 0 731 112" fill="none" xmlns="http://www.w3.org/2000/svg">
<path fill-rule="evenodd" clip-rule="evenodd" d="M0 54.5714V109.143H16.5617H33.1234V92.34V75.5366L48.6857 75.2886C62.304 75.0714 64.8049 74.8886 68.7026 73.8217C79.3569 70.908 88.0695 63.928 92.3778 54.8571C95.343 48.6143 96.1728 44.9897 96.1728 38.2857C96.1728 31.4366 95.343 27.9337 92.1277 21.212C88.5972 13.8303 82.4402 7.52743 75.3844 4.07143C67.2497 0.0868571 66.5336 0.0211429 31.2674 0.00971429L0 0V54.5714ZM615.639 10.2857V20.5714H630.202H644.765V10.2857V0H630.202H615.639V10.2857ZM56.8238 27.3657C66.1823 31.6874 65.3017 46.4 55.5212 49.1177C54.3533 49.4423 48.8359 49.7091 43.2604 49.7109L33.1234 49.7143V38V26.2857L43.8314 26.2983C53.0186 26.3091 54.8638 26.4606 56.8238 27.3657ZM232.721 28.576C226.875 29.2154 220.969 31.6977 214.367 36.2909L210.862 38.7291L210.519 36.6503C210.33 35.5069 210.172 33.736 210.169 32.7143L210.162 30.8571H195.885H181.608V70V109.143H196.718H211.828L211.995 85.5714C212.158 62.52 212.189 61.948 213.421 59.6434C216.635 53.6314 223.866 51.464 229.424 54.8463C233.381 57.2543 233.261 56.4086 233.577 83.9737L233.863 108.857L249.425 109.009L264.987 109.161V81.5291C264.987 56.0789 264.9 53.556 263.882 49.5749C262.379 43.692 260.295 39.8017 256.744 36.2486C250.848 30.3497 242.087 27.5514 232.721 28.576ZM576.7 28.6526C570.759 29.3949 563.373 32.6886 558.148 36.9263C556.839 37.988 555.618 38.8571 555.435 38.8571C555.253 38.8571 555.1 37.6354 555.095 36.1429C555.091 34.6503 554.932 32.8497 554.743 32.1429L554.399 30.8571H540.473H526.548V70V109.143H541.682H556.816L556.822 85.5714L556.827 62L558.518 59.0503C560.677 55.2829 565.113 52.8349 568.987 53.272C572.561 53.6749 575.471 55.2703 576.938 57.632C578.224 59.7 578.234 59.8811 578.398 84.4286L578.564 109.143H594.284H610.005L609.778 80.7143C609.579 55.732 609.43 51.8737 608.551 48.888C604.308 34.4863 592.1 26.7303 576.7 28.6526ZM384.292 29.1623C367.933 31.0754 357.418 38.984 355.189 51.0503C354.013 57.4154 356.73 65.4669 361.597 70.0417C366.453 74.6069 369.602 75.7771 385.299 78.8486C391.842 80.1286 398.145 81.432 399.306 81.7446C401.907 82.4451 403.763 84.6931 403.763 87.1429C403.763 93.6383 392.932 96.0343 386.195 91.0291C384.783 89.9806 384.103 88.8229 383.388 86.2509L382.445 82.8571H368.184H353.922L354.222 86.6023C354.826 94.1286 360.478 102.053 368.153 106.137C375.769 110.187 389.941 112.523 400.394 111.45C408.471 110.621 413.024 109.452 418.5 106.803C429.898 101.289 435.735 90.428 433.241 79.3771C432.067 74.1789 430.325 71.168 426.5 67.7263C420.714 62.5211 412.114 59.412 395 56.3377C386.342 54.7829 384.346 53.9069 384.346 51.6634C384.346 48.0383 387.313 46.0954 392.912 46.0554C398.608 46.0149 402.621 48.6851 402.621 52.5166C402.621 53.7 402.788 53.7143 416.692 53.7143H430.762L430.394 50.5834C429.271 41.0154 423.983 34.9486 413.676 31.4006C406.975 29.0937 393.592 28.0743 384.292 29.1623ZM472.05 29.2074C459.647 30.7057 448.335 37.504 441.747 47.4194C430.312 64.6297 434.403 89.8177 450.705 102.581C455.243 106.134 460.043 108.579 465.441 110.088C470.758 111.574 486.966 111.574 492.283 110.088C507.394 105.864 518.262 94.2149 521.42 78.8571C524.979 61.5474 519.153 46.3314 505.208 36.508C496.636 30.4703 484.221 27.7366 472.05 29.2074ZM122.683 29.9983C113.546 31.5371 107.957 34.1811 103.459 39.0931C99.3857 43.5423 96.7027 50.9086 97.4583 55.568L97.7787 57.5423L105.856 57.912C110.298 58.1154 116.31 58.2823 119.216 58.2834L124.498 58.2857L124.511 56.7143C124.536 53.6371 126.467 50.5406 129.183 49.2251C132.164 47.7811 137.779 47.568 140.697 48.788C144.33 50.3069 146.057 54.2069 144.438 57.2343C143.396 59.1806 139.542 60.4177 126.18 63.0937C112.712 65.7909 108.137 67.1046 104.231 69.3943C100.674 71.4806 97.0865 75.336 95.4263 78.8571C94.1254 81.6171 93.9449 82.7303 93.9449 88C93.9449 93.5549 94.0797 94.284 95.7576 97.8291C99.8923 106.561 106.837 110.599 118.843 111.253C128.642 111.786 137.389 109.168 142.952 104.038C144.338 102.759 145.595 101.714 145.745 101.714C145.896 101.714 146.339 102.807 146.73 104.143C148.293 109.482 147.144 109.143 163.651 109.143C177.716 109.143 178.202 109.106 177.649 108.073C176.229 105.418 175.808 99.9583 175.31 77.7463C174.726 51.6497 174.377 48.6674 171.218 42.7371C167.543 35.8394 160.968 32.1017 148.838 30.0154C142.684 28.9566 128.922 28.948 122.683 29.9983ZM297.289 29.988C284.668 32.2 276.878 37.8126 273.645 47.024C272.413 50.5343 271.946 56.7874 272.874 57.3611C273.127 57.5183 279.103 57.8263 286.152 58.0457L298.968 58.4451L299.68 55.3989C300.885 50.2411 304.189 48 310.587 48C316.314 48 319.927 50.5851 319.927 54.684C319.927 58.8674 317.226 60.0171 299.462 63.3954C284.326 66.2737 278.733 68.4926 274.194 73.42C266.431 81.8463 266.737 95.4743 274.877 103.903C278.139 107.281 281.127 108.935 286.401 110.285C297.49 113.123 310.193 110.587 318.151 103.948L320.772 101.761L322.148 105.309L323.525 108.857L338.23 109.01C346.319 109.094 352.936 109.061 352.936 108.937C352.936 108.813 352.581 107.844 352.146 106.784C351.02 104.038 350.639 97.9703 350.087 74C349.561 51.1794 349.188 48.1429 346.251 42.7417C343.136 37.016 336.729 32.8371 327.892 30.7686C321.398 29.248 304.038 28.8051 297.289 29.988ZM680.744 29.9291C671.804 32.0011 666.396 34.9069 660.422 40.8503C655.118 46.1269 651.831 52.0034 649.901 59.6629C647.87 67.7257 648.631 79.0286 651.686 86.1606C655.953 96.1183 665.628 105.269 676.082 109.232C681.009 111.1 681.072 111.108 691.309 111.104C700.946 111.101 701.874 111.005 706.157 109.565C712.531 107.423 717.458 104.387 722.146 99.7143C728.077 93.8034 730.954 87.3394 730.986 79.8571L731 76.5714H716.99C706.266 76.5714 702.935 76.7389 702.787 77.2857C702.681 77.6789 702.31 79.5091 701.964 81.3537C701.253 85.1451 699.3 88.1011 696.576 89.5109C694.281 90.6983 689.522 90.72 687.269 89.5543C684.48 88.1114 680.988 83.8892 679.919 80.668C677.753 74.1429 677.884 64.252 680.219 58.0074C682.756 51.2234 690.089 48.1137 696.249 51.2097C698.486 52.3343 701.806 56.4817 702.215 58.6646L702.573 60.5714H716.215H729.858V58.6914C729.858 55.884 728.307 50.4629 726.567 47.1857C725.72 45.5909 723.094 42.3337 720.732 39.948C716.096 35.2663 710.991 32.3051 704.444 30.5017C699.947 29.2629 685.16 28.9057 680.744 29.9291ZM615.639 70V109.143H630.202H644.765V70V30.8571H630.202H615.639V70ZM482.161 49.7486C483.348 50.0783 485.173 51.0983 486.217 52.016C494.436 59.236 493.884 83.8983 485.378 89.5309C483.277 90.9217 482.383 91.1429 478.862 91.1429C475.364 91.1429 474.441 90.9177 472.404 89.5686C467.265 86.1663 464.448 75.2937 466 64.8531C467.754 53.0514 473.78 47.4194 482.161 49.7486ZM146.065 79.0274C145.566 87.0366 142.586 90.996 135.642 92.8766C129.108 94.6463 123.702 92.7971 122.213 88.284C121.462 86.0046 122.138 84.0206 124.228 82.376C125.068 81.7149 129.729 79.8852 134.586 78.3097C139.442 76.7343 143.85 75.192 144.38 74.8829C146.181 73.832 146.362 74.2771 146.065 79.0274ZM320.685 82.64C319.738 89.032 313.98 93.3749 306.425 93.3943C300.205 93.4103 296.969 90.9646 296.969 86.248C296.969 83.1189 299.147 81.7851 310.44 78L320.669 74.5714L320.851 77.4286C320.951 79 320.876 81.3451 320.685 82.64Z" fill="white"/>
</svg>
