<svg width="652" height="145" viewBox="0 0 652 145" fill="none" xmlns="http://www.w3.org/2000/svg">
<path fill-rule="evenodd" clip-rule="evenodd" d="M50.5 1.41007C20.767 7.51495 0 34.1512 0 66.1849C0 78.4136 2.163 87.7649 7.597 99.0345C15.03 114.45 28.425 126.119 45.165 131.765C49.199 133.126 55.318 134.503 58.762 134.825L65.024 135.41L64.762 121.628L64.5 107.847L60.5 107.1C51.694 105.458 46.149 103.836 38.75 100.741C34.487 98.9568 31 97.8127 31 98.1987C31 99.129 37.571 105.283 42.176 108.665C44.197 110.151 48.922 112.669 52.676 114.262C56.429 115.855 58.765 117.17 57.866 117.185C56.967 117.2 52.543 115.375 48.035 113.13C39.118 108.689 31.514 101.927 25.512 93.0997C7.314 66.3351 21.189 21.0569 52.264 5.79771C56.794 3.57404 62.525 1.3663 65 0.890719L69.5 0.0281163L63.5 0.000258259C60.2 -0.0146657 54.35 0.619104 50.5 1.41007ZM78.429 13.5711C73.522 15.8624 68.697 21.43 67.141 26.5957C66.345 29.2402 66 47.2574 66 86.2009C66 140.365 66.057 142.045 67.934 143.045C70.447 144.382 88.553 144.382 91.066 143.045C92.942 142.046 93 140.373 93.014 87.5778C93.021 57.6375 93.288 32.1723 93.607 30.9903L94.187 28.8403L97.535 30.8052C102.218 33.5542 107.848 40.0183 110.295 45.4556C112.898 51.2381 113.776 65.387 112.024 73.3215C110.25 81.3566 104.564 91.5416 98.92 96.7939L94.045 101.331L94.064 115.277L94.084 129.224L100.292 125.992C108.563 121.688 122.522 107.869 127.252 99.3031C130.701 93.0579 135.016 80.9228 134.985 77.5589C134.971 76.1342 134.838 76.1153 133.954 77.4147C133.227 78.4842 133.161 78.0604 133.72 75.9223C135.34 69.7258 134.321 56.9888 131.541 48.6841C124.432 27.4464 110.289 17.4036 98.609 25.3003C96.386 26.8036 94.944 27.33 95.204 26.544C95.452 25.7938 97.194 24.1332 99.077 22.8538C101.88 20.9475 103.451 20.6022 107.753 20.9455C112.67 21.3385 112.907 21.2559 111.451 19.6541C110.595 18.7139 107.106 16.6952 103.697 15.1699C95.455 11.4817 84.4 10.7823 78.429 13.5711ZM443 64.4806C443 107.594 443.03 108.257 445 108.257C446.97 108.257 447 107.594 447 64.4806C447 21.3673 446.97 20.7037 445 20.7037C443.03 20.7037 443 21.3673 443 64.4806ZM561 64.4806V108.352L567.25 108.056L573.5 107.76L574 87.8614C574.464 69.3846 574.662 67.7042 576.766 64.3373C579.754 59.5577 585.016 57.0972 592.133 57.1529C599.308 57.2087 603.699 59.682 607 65.5263C609.384 69.7477 609.516 70.8402 609.842 89.1051L610.184 108.257H616.193H622.202L621.811 87.6127C621.451 68.6424 621.231 66.5461 619.096 61.7674C611.963 45.7978 590.793 40.3854 578.017 51.2659L574.049 54.6447L573.774 37.923L573.5 21.2012L567.25 20.9047L561 20.6092V64.4806ZM637.008 25.1729C629.886 32.7145 640.928 43.7005 648.508 36.6146C651.847 33.4945 651.931 27.8911 648.686 24.8566C645.428 21.8121 640.043 21.9583 637.008 25.1729ZM237.967 29.7188C236.997 31.5226 237.126 32.2151 238.727 33.8089C240.631 35.7033 240.685 35.7023 243.078 33.7502C245.051 32.1394 245.296 31.438 244.398 29.9695C242.755 27.2812 239.35 27.1489 237.967 29.7188ZM462.935 29.7795C462.005 31.5077 462.147 32.2359 463.716 33.798C465.929 35.9988 468.62 35.4018 469.545 32.5036C470.904 28.2433 465.057 25.8336 462.935 29.7795ZM192.994 46.5062C183.943 49.2452 178.615 55.572 178.615 63.5792C178.615 72.3962 183.844 76.7321 196.566 78.4643C211.068 80.4392 217.325 82.1843 219.75 84.9284C224.323 90.103 221.57 99.314 214.166 103.616C210.036 106.016 199.093 106.918 193.237 105.341C187.525 103.804 182.232 99.0603 181.42 94.7503C180.941 92.2112 180.265 91.3437 178.764 91.3437C177.028 91.3437 176.838 91.7904 177.387 94.5772C179.417 104.891 192.795 111.605 206.833 109.356C213.842 108.234 217.473 106.53 221.186 102.625C228.418 95.0209 227.454 83.6539 219.229 79.5557C214.578 77.2376 212.66 76.7879 201.677 75.4387C186.661 73.5951 182.714 71.077 182.821 63.409C182.944 54.4885 189.541 49.5567 201.348 49.5567C205.042 49.5567 209.533 50.1675 211.329 50.9137C215.474 52.637 220 57.9399 220 61.0749C220 62.8698 220.543 63.4857 222.125 63.4857C223.986 63.4857 224.171 63.0847 223.613 60.2521C222.427 54.2259 216.484 48.6234 209.118 46.5878C204.958 45.4386 196.661 45.3969 192.994 46.5062ZM274.994 46.5062C266.578 49.0532 260.889 55.1561 259.072 63.5852C258.482 66.3202 258 77.4903 258 88.4076C258 107.363 258.087 108.257 259.932 108.257C261.776 108.257 261.879 107.221 262.182 85.6228C262.491 63.6041 262.568 62.8678 265 58.5807C268.366 52.6469 274.252 49.5567 282.189 49.5567C289.594 49.5567 293.831 51.3067 297.683 55.956C302.402 61.652 303 65.2228 303 87.7281C303 105.313 303.215 108.257 304.5 108.257C305.779 108.257 306 105.564 306 89.9866C306 69.3249 306.925 62.7126 310.583 57.2126C316.629 48.123 334.311 46.6763 341.702 54.6656C346.731 60.1009 347.385 63.5264 347.804 86.6177C348.125 104.332 348.45 108.257 349.598 108.257C350.757 108.257 351 104.534 351 86.7332C351 61.5654 350.462 58.9239 344.024 52.4907C333.458 41.9315 314.635 43.8209 307.361 56.1709L304.668 60.7416L302.857 57.2305C298.206 48.2105 285.509 43.3244 274.994 46.5062ZM386.552 47.1668C377.145 50.1516 370.732 56.1083 366.308 65.973C364.74 69.4692 364.482 73.8548 364.188 102.039C363.855 133.948 363.864 134.126 365.926 134.126C367.958 134.126 368 133.705 368 113.58V93.035L370.854 96.9153C374.831 102.324 376.691 103.79 383.527 106.912C388.517 109.191 390.83 109.632 397.585 109.595C410.692 109.521 420.641 103.867 426.495 93.1654C430.237 86.3262 431.157 74.4289 428.549 66.6167C426.316 59.9278 419.383 52.3663 412.341 48.9388C405.362 45.5411 394.114 44.7691 386.552 47.1668ZM505.803 46.9052C496.625 49.489 490.351 55.169 485.78 65.0328C483.557 69.8293 483.5 70.7516 483.5 101.79V133.628H489.5H495.5L496 116.397L496.5 99.1668L499.5 102.345C504.063 107.18 509.379 109.206 517.572 109.23C521.461 109.242 526.724 108.547 529.266 107.685C535.637 105.525 542.337 99.3538 545.694 92.5515C548.183 87.5092 548.496 85.7969 548.465 77.4147C548.426 66.8147 546.911 62.7176 540.367 55.5113C532.948 47.341 517.723 43.5493 505.803 46.9052ZM239 77.9121C239 107.594 239.044 108.257 241 108.257C242.956 108.257 243 107.594 243 77.9121C243 48.2304 242.956 47.5668 241 47.5668C239.044 47.5668 239 48.2304 239 77.9121ZM464 77.9121C464 107.594 464.044 108.257 466 108.257C467.956 108.257 468 107.594 468 77.9121C468 48.2304 467.956 47.5668 466 47.5668C464.044 47.5668 464 48.2304 464 77.9121ZM637 77.9121V108.257H643H649V77.9121V47.5668H643H637V77.9121ZM411.5 52.2698C420.863 57.1549 425.943 65.8287 425.978 76.9888C426.018 89.8413 421.381 98.0117 411.23 102.97C406.384 105.338 404.265 105.768 397.5 105.755C384.487 105.731 375.433 100.38 370.98 90.0821C364.492 75.0766 369.586 59.4074 383.171 52.5783C389.164 49.5656 389.978 49.4184 398.5 49.7905C405.126 50.08 408.555 50.7337 411.5 52.2698ZM521.067 57.6235C534.381 60.4641 540.676 75.3382 534.041 88.2783C527.702 100.641 506.923 101.688 499.172 90.0343C495.467 84.4637 494.844 73.619 497.889 67.6813C500.306 62.9683 504.986 59.108 510 57.6902C514.711 56.358 515.127 56.356 521.067 57.6235ZM132 82.1993C132 82.642 131.318 83.8727 130.484 84.9353C129.078 86.7262 129.053 86.6675 130.144 84.1304C131.322 81.3934 132 80.687 132 82.1993ZM124.115 95.1632C123.003 96.7163 121.303 98.6196 120.337 99.3916C119.37 100.164 120.1 98.8932 121.957 96.567C125.772 91.7904 127.187 90.8701 124.115 95.1632ZM119 101.624C119 101.806 117.088 103.405 114.75 105.178L110.5 108.402L114.417 104.847C118.134 101.474 119 100.865 119 101.624ZM62.729 117.813C62.397 118.143 61.534 118.179 60.813 117.891C60.015 117.574 60.252 117.338 61.417 117.29C62.471 117.248 63.061 117.482 62.729 117.813ZM546.315 122.193C541.633 124.071 540.803 129.045 544.55 132.773C546.542 134.755 547.692 135.164 549.8 134.641C556.252 133.039 558.144 126.994 553.365 123.254C550.495 121.007 549.608 120.873 546.315 122.193ZM514.202 128.326C514.505 134.574 516.567 137.482 517.683 133.235C518.03 131.913 519.038 131.141 520.417 131.141C523.174 131.141 525 129.357 525 126.664C525 123.486 523.041 122.186 518.252 122.186H513.905L514.202 128.326ZM574.283 128.392C576.889 135.665 579.175 136.883 580.944 131.938L582.119 128.653L583.511 131.887C585.547 136.616 587.564 135.953 589.565 129.897C590.515 127.024 591.499 124.115 591.753 123.43C592.026 122.694 591.389 122.186 590.19 122.186C588.883 122.186 587.825 123.156 587.203 124.922L586.238 127.659L585.144 124.922C583.598 121.059 580.55 121.319 579.318 125.42L578.346 128.653L577.593 125.42C577.003 122.882 576.327 122.186 574.451 122.186H572.06L574.283 128.392ZM610 128.708V135.23L614.741 134.927C618.313 134.698 619.564 134.194 619.814 132.882C620.073 131.528 619.407 131.108 616.823 130.992C613.798 130.856 613.746 130.806 616.25 130.428C618.119 130.147 619 129.419 619 128.156C619 126.893 618.119 126.165 616.25 125.884C613.69 125.499 613.725 125.459 616.75 125.32C618.906 125.221 620 124.669 620 123.679C620 122.552 618.778 122.186 615 122.186H610V128.708ZM638.202 128.326C638.512 134.703 640.317 137.131 641.794 133.158L642.586 131.027L644.448 133.074C645.472 134.199 646.915 135.121 647.655 135.121C649.273 135.121 649.425 132.957 647.913 131.452C647.13 130.673 647.13 130.184 647.913 129.702C649.367 128.808 649.297 124.87 647.8 123.38C647.14 122.724 644.644 122.186 642.252 122.186H637.905L638.202 128.326ZM521 126.664C521 127.484 520.325 128.156 519.5 128.156C518.675 128.156 518 127.484 518 126.664C518 125.843 518.675 125.171 519.5 125.171C520.325 125.171 521 125.843 521 126.664ZM551.5 128.17C551.5 129.933 550.891 130.73 549.377 130.945C546.836 131.306 545.442 128.532 547.141 126.494C548.934 124.345 551.5 125.331 551.5 128.17ZM645 126.664C645 127.484 644.325 128.156 643.5 128.156C642.675 128.156 642 127.484 642 126.664C642 125.843 642.675 125.171 643.5 125.171C644.325 125.171 645 125.843 645 126.664Z" fill="white"/>
</svg>
