<svg width="948" height="192" viewBox="0 0 948 192" fill="none" xmlns="http://www.w3.org/2000/svg">
<path fill-rule="evenodd" clip-rule="evenodd" d="M231.914 74.9897V149.972H244.578H257.241V74.9897V0.00764149H244.578H231.914V74.9897ZM540.861 0.717345C537.079 1.55361 535.712 2.11144 533.187 3.84797C530.414 5.75404 528.508 7.83491 527.005 10.5949C526.051 12.3458 513.861 46.5304 513.861 47.4536C513.861 47.5706 515.146 47.2669 516.717 46.7783C523.686 44.6105 527.758 44.2007 542.294 44.2055C554.797 44.2093 556.685 44.3163 561.588 45.2978C576.72 48.3262 583.74 54.64 587.168 68.3034C588.646 74.1974 589.329 80.675 589.696 92.3025L589.994 101.735H554.063C522.101 101.735 518.1 101.817 517.848 102.473C517.359 103.748 518.55 119.049 519.341 121.653C520.408 125.159 522.721 127.978 525.787 129.509C529.57 131.398 534.595 131.976 544.923 131.708C554.294 131.465 557.082 130.944 560.257 128.843C562.432 127.403 564.426 123.331 564.82 119.525L565.13 116.54H577.559H589.988L589.688 121.436C588.615 138.933 581.055 147.138 563.635 149.711C553.06 151.272 531.047 151.049 521.828 149.286C504.756 146.022 496.815 137.309 494.289 119.07C494.005 117.022 493.598 113.627 493.385 111.526C493.171 109.424 492.86 108.027 492.692 108.421C492.524 108.815 486.897 125.035 480.186 144.466C469.245 176.144 467.985 180.106 467.985 182.816C467.985 184.536 468.286 186.422 468.684 187.191C469.652 189.062 471.976 190.914 474.092 191.501C475.295 191.835 517.603 191.994 604.896 191.993L733.923 191.991L731.333 190.508C725.843 187.361 721.524 181.046 720.108 174.09C719.491 171.065 719.16 166.149 719.296 162.031L719.347 160.479H730.807H742.267L742.485 161.553C742.605 162.145 742.811 163.889 742.943 165.43C743.421 171.007 746.439 174.817 751.6 176.36C754.817 177.322 771.377 177.136 775.848 176.089C780.348 175.034 783.578 172.982 785.402 170.018C787.692 166.298 788.144 162.674 788.153 147.942C788.158 140.653 788 134.689 787.802 134.689C787.605 134.689 786.906 135.707 786.249 136.95C782.991 143.121 775.466 148.12 766.896 149.806C760.684 151.028 747.627 150.903 741.091 149.558C729.318 147.136 721.692 140.736 718.203 130.348C716.227 124.463 715.55 119.386 715.024 106.511C714.053 82.6995 715.904 67.524 720.831 58.9058C725.379 50.9515 733.901 45.9249 745.444 44.3899C751.674 43.5613 764.047 44.0503 768.732 45.3097C776.639 47.436 782.19 51.5366 786.019 58.0801C787.017 59.7856 787.976 61.0101 788.149 60.8019C788.323 60.5936 788.31 58.274 788.122 55.6472C787.933 53.0205 787.758 49.6353 787.731 48.1251L787.684 45.379H800.136H812.588L812.39 103.287C812.219 153.451 812.091 161.77 811.433 165.494C809.191 178.201 804.725 185.704 796.681 190.279L793.657 192L834.754 191.881L875.852 191.761L879.188 190.328C883.372 188.531 887.813 184.339 889.56 180.538C891.118 177.149 900.648 149.521 900.358 149.232C900.238 149.111 898.984 149.231 897.571 149.499C893.248 150.318 876.248 151.053 868.942 150.736C841.833 149.562 831.456 142.192 827.607 121.38C826.421 114.963 825.764 101.928 826.078 90.9891C826.646 71.1155 829.394 61.3616 836.378 54.4241C843.681 47.1704 852.501 44.5589 871.312 44.0818C887.734 43.6654 898.105 45.09 905.719 48.8081C916.04 53.8481 920.576 62.8589 922.243 81.6354C922.428 83.7187 922.709 84.8984 922.926 84.501C923.128 84.1294 928.85 67.8139 935.641 48.2445C947.17 15.0217 947.989 12.4423 948 9.3207C948.014 5.08637 946.832 2.95917 943.572 1.35493L941.321 0.246438L821.254 0.123219L701.188 0V74.7471V149.494H688.706H676.225L676.529 144.838C676.696 142.276 676.959 138.731 677.113 136.957C677.281 135.002 677.209 133.734 676.928 133.734C676.673 133.734 675.635 135.152 674.621 136.884C672.477 140.548 667.749 145.167 664.415 146.856C653.87 152.196 633.287 152.077 621.497 146.607C616.907 144.478 612.668 140.738 610.152 136.598C608.018 133.087 605.786 126.34 604.829 120.506C603.792 114.183 603.356 85.8779 604.174 77.947C606.226 58.0457 613.665 48.5664 629.985 45.058C635.766 43.8153 651.54 43.8177 656.883 45.0628C664.676 46.8781 671.36 51.5452 674.028 57.0346C676.314 61.7361 676.338 61.4466 676.338 29.6184V0.00764149L610.033 0.0453713C556.795 0.0759373 543.163 0.208708 540.861 0.717345ZM33.5956 43.7857C19.6144 44.7629 12.1605 47.158 6.97699 52.3385C1.72943 57.5829 -0.153398 64.3795 0.306318 76.4225C0.752176 88.1083 2.39511 93.4793 6.77771 97.5761C12.5533 102.975 19.6632 104.675 40.0469 105.529C59.6977 106.352 63.428 106.853 67.4431 109.204C70.5053 110.998 71.3985 113.327 71.4467 119.644C71.4821 124.22 71.3736 124.846 70.1025 127.387C68.9106 129.77 68.3544 130.335 66.0759 131.474C61.7893 133.619 50.9033 134.335 38.9655 133.259C29.355 132.394 26.6683 129.658 25.7083 119.764L25.3957 116.54H12.6981H0L0.294371 121.016C1.20234 134.83 5.5706 142.977 14.2741 147.086C20.6151 150.081 27.5534 150.929 45.6433 150.922C59.8291 150.917 69.0779 150.177 75.4097 148.542C91.4989 144.39 98.4768 133.243 96.713 114.515C95.3147 99.6694 89.508 91.9973 77.316 88.8867C71.8434 87.4907 67.0063 87.0074 52.9496 86.4539C34.3889 85.7222 30.2338 85.0832 27.5299 82.5443C26.0858 81.1889 25.2791 77.0171 25.6629 72.8902C26.2191 66.9093 28.3098 63.9688 33.2224 62.2576C35.413 61.4944 37.3235 61.3783 47.693 61.3783C60.4795 61.3783 61.9896 61.5961 64.6356 63.8207C66.171 65.1126 67.3112 67.834 67.7642 71.2884L68.0615 73.557H80.7338H93.4061L93.0859 70.3332C91.9543 58.9493 87.695 52.0581 79.293 48.0196C72.3079 44.6616 62.8359 43.406 45.5927 43.5522C40.1769 43.598 34.7784 43.7031 33.5956 43.7857ZM148.525 43.9591C125.391 46.0285 115.829 54.1576 112.904 74.2447C111.472 84.0817 111.586 112.194 113.096 121.336C115.303 134.702 119.744 141.623 128.892 145.954C136.506 149.559 145.077 150.888 160.849 150.912C178.059 150.938 186.671 149.506 194.877 145.256C202.748 141.179 207.083 134.109 209.246 121.816C210.952 112.116 210.951 83.9991 209.244 73.3182C206.367 55.3225 198.288 47.5109 179.587 44.6425C173.836 43.7604 155.304 43.353 148.525 43.9591ZM315.781 43.7542C302.355 44.7638 295.617 46.9183 290.18 51.9392C285.389 56.3646 282.115 64.7821 282.097 72.7212L282.091 75.4673H294.7H307.309L307.649 72.7212C308.321 67.3 310.532 64.242 315.04 62.4997C318.401 61.1997 330.284 60.693 336.011 61.6047C344.935 63.0256 347.935 66.1858 348.975 75.2644C349.563 80.3942 349.636 97.4366 349.071 97.4366C348.85 97.4366 348.448 96.9533 348.178 96.362C347.103 94.0118 343.153 90.2808 340.241 88.8648C334.824 86.2308 332.52 85.8464 320.794 85.6181C302.411 85.2608 293.221 87.3312 286.54 93.3346C283.367 96.1853 281.319 99.4349 279.814 104.006C278.754 107.227 278.57 108.754 278.389 115.824C278.215 122.632 278.335 124.687 279.132 128.549C281.833 141.642 289.227 148.129 303.834 150.224C310.411 151.167 326.074 151.15 331.608 150.193C339.766 148.783 345.583 145.037 349.005 138.987L350.49 136.36L350.241 138.51C350.104 139.692 349.849 142.754 349.675 145.315L349.358 149.972H362.078H374.799L374.797 115.227C374.797 94.4173 374.592 78.3081 374.288 75.0609C372.44 55.344 364.573 46.999 345.41 44.4257C341.545 43.9066 320.19 43.4227 315.781 43.7542ZM442.657 44.174C433.095 46.0075 426.994 50.024 423.597 56.7218C423.03 57.8384 422.43 58.7516 422.263 58.7516C422.097 58.7516 422.094 55.6353 422.259 51.8265L422.558 44.9014H410.148H397.737V97.4366V149.972H410.384H423.03L423.175 113.317C423.307 80.1334 423.398 76.4311 424.143 74.2332C425.248 70.9722 427.21 68.153 429.593 66.4012C432.904 63.9678 435.114 63.3976 441.463 63.3403C446.537 63.2944 447.426 63.411 449.188 64.3523C453.117 66.4523 454.133 69.1134 454.478 78.2135L454.736 85.0192H466.691H478.646L478.356 76.5419C477.999 66.0731 477.113 61.1649 474.659 56.0622C471.811 50.1425 467.312 46.5152 460.552 44.6908C456.489 43.5942 447.095 43.3229 442.657 44.174ZM533.221 63.0786C522.592 64.1847 519.254 67.2432 518.138 76.9001C517.85 79.3955 517.683 82.5118 517.768 83.8252L517.923 86.2132H541.339H564.755L564.678 80.9735C564.505 69.1364 562 65.0434 553.998 63.5266C550.25 62.8164 538.235 62.557 533.221 63.0786ZM645.424 63.1096C636.163 64.0806 632.327 67.3482 629.888 76.3418C629.02 79.5407 628.866 81.773 628.67 93.9803C628.296 117.327 629.886 124.274 636.575 128.522C640.6 131.078 643.191 131.588 651.967 131.552C658.662 131.523 660.312 131.366 662.905 130.506C669.412 128.349 672.645 124.915 674.522 118.171C675.505 114.636 675.574 113.371 675.593 98.6306C675.609 85.2771 675.482 82.2501 674.759 78.8105C672.541 68.269 667.693 64.2291 655.859 63.0609C653.137 62.792 650.556 62.601 650.124 62.6358C649.692 62.6707 647.577 62.8842 645.424 63.1096ZM756.468 63.091C742.253 64.5137 739.023 72.2011 739.927 102.451C740.221 112.29 740.462 115.063 741.295 118.21C743.045 124.817 746.698 128.869 752.538 130.683C756.203 131.821 765.104 132.076 770.198 131.189C780.337 129.422 784.805 124.888 786.463 114.683C787.944 105.565 787.711 84.8664 786.045 77.6905C784.189 69.6904 779.791 65.34 771.974 63.7711C767.474 62.8679 761.369 62.6005 756.468 63.091ZM866.301 63.0795C858.453 63.8948 854.566 65.9269 852.739 70.1694C851.532 72.9752 850.642 79.2212 850.856 83.3853L851.002 86.2132H874.418H897.834L897.707 80.7209C897.438 69.0728 894.953 65.0195 887.175 63.5452C883.466 62.8422 871.216 62.569 866.301 63.0795ZM169.325 63.5528C173.564 64.0791 177.784 65.6719 179.768 67.4953C181.45 69.0408 183.491 73.6568 184.211 77.5434C184.661 79.9763 184.842 85.9089 184.839 98.153C184.836 112.876 184.716 115.81 184.009 118.574C182.285 125.309 179.76 128.381 174.415 130.244C172.303 130.98 170.33 131.106 160.95 131.099C150.523 131.092 149.811 131.033 147.091 129.959C141.345 127.692 138.834 123.448 137.775 114.218C137.152 108.784 137.16 85.3478 137.787 80.3536C139.48 66.8616 144.168 63.3374 160.723 63.112C163.227 63.0776 167.098 63.2763 169.325 63.5528ZM851.082 102.053C850.631 102.503 850.699 107.707 851.24 114.232C852.468 129.035 857.3 132.213 877.805 131.705C887.412 131.467 890.17 130.956 893.328 128.83C895.516 127.355 897.524 123.279 897.904 119.538L898.206 116.565L905.122 116.433L912.038 116.302L914.374 109.659C915.659 106.005 916.71 102.727 916.71 102.375C916.71 101.846 911.039 101.735 884.055 101.735C866.095 101.735 851.257 101.878 851.082 102.053ZM335.374 103.194C344.018 104.201 347.837 107.311 349.021 114.307C350.182 121.16 348.182 127.559 343.964 130.486C340.428 132.94 337.013 133.496 325.578 133.48C316.398 133.467 314.946 133.355 311.952 132.426C306.115 130.616 304.092 127.501 303.7 119.719C303.282 111.419 305.02 107.276 309.928 104.876C313.98 102.895 325.993 102.101 335.374 103.194Z" fill="white"/>
</svg>
