<svg width="915" height="249" viewBox="0 0 915 249" fill="none" xmlns="http://www.w3.org/2000/svg">
<path fill-rule="evenodd" clip-rule="evenodd" d="M88.563 3.48053C44.3996 20.4453 18.2339 46.6543 4.82421 87.3605C-3.5515 112.788 -0.790148 150.73 11.3152 176.594C48.2973 255.603 151.677 273.725 214.229 212.167C240.572 186.242 252.28 154.731 250.026 115.817C247.375 70.0324 220.259 30.392 178.051 10.5993C160.157 2.20703 153.656 0.835803 128.441 0.127284C109.417 -0.407158 95.6832 0.747238 88.563 3.48053ZM154.405 18.6343C174.843 24.0795 185.238 29.7659 202.402 44.8861C234.313 73.0008 247.298 125.059 232.34 164.907C218.909 200.684 189.609 226.737 151.97 236.378C90.1758 252.204 25.7818 208.542 15.3412 143.74C2.79901 65.8668 77.9452 -1.73563 154.405 18.6343ZM339.721 92.6591C334.275 96.4735 332.968 99.9153 333.695 108.512C334.492 117.909 336.612 120.655 348.369 127.511C364.58 136.963 368.285 145.813 356.033 145.813C351.598 145.813 345.29 144.381 342.015 142.628C337.323 140.118 335.643 140.533 334.086 144.595C329.18 157.373 361.284 163.444 372.809 151.921C383.888 140.844 379.181 127.81 360.694 118.383C354.145 115.042 347.831 110.76 346.661 108.867C343.417 103.623 351.53 100.193 359.772 103.327C370.509 107.41 372.809 106.811 372.809 99.9276C372.809 88.8478 351.766 84.2241 339.721 92.6591ZM437.917 92.2591C417.198 101.268 412.79 131.618 429.646 149.209C448.007 168.367 481.161 156.075 484.827 128.751C487.038 112.259 479.582 97.857 465.87 92.1278C453.224 86.8475 450.331 86.8597 437.917 92.2591ZM554.557 90.5763C551.197 92.03 544.667 92.5126 540.048 91.6483L531.648 90.0786V124.268C531.648 157.974 531.746 158.441 538.521 157.479C544.859 156.578 545.461 154.722 546.252 133.597C547.202 108.341 550.602 103.058 565.908 103.058C576.938 103.058 580.521 111.719 580.521 138.377C580.521 156.294 581.086 158.029 586.927 158.029C593.051 158.029 593.283 156.774 592.272 129.12C591.5 108.014 589.917 98.9198 586.42 95.426C580.616 89.6296 562.96 86.9421 554.557 90.5763ZM659.177 92.0545C654.559 94.5465 650.777 95.2947 650.777 93.7158C650.777 92.1339 648.715 90.842 646.195 90.842C642.401 90.842 641.613 96.611 641.613 124.436C641.613 155.992 641.983 158.029 647.723 158.029C653.322 158.029 653.832 155.992 653.832 133.704C653.832 107.257 656.511 103.058 673.378 103.058C684.066 103.058 687.432 111.053 687.432 136.45C687.432 155.992 688.01 158.029 693.542 158.029C699.193 158.029 699.651 155.992 699.651 130.882C699.651 109.554 698.505 102.334 694.305 97.1943C687.359 88.6982 670.085 86.1695 659.177 92.0545ZM768.037 90.6832C755.935 95.7559 748.524 108.821 748.524 125.083C748.524 137.693 749.994 141.645 757.453 149.102C764.885 156.533 768.883 158.029 781.306 158.029C798.546 158.029 808.569 152.388 805.505 144.412C804.081 140.704 801.83 139.779 798.137 141.382C795.211 142.652 788.549 144.295 783.331 145.035C775.68 146.119 772.524 144.702 767.002 137.696L760.153 129.017L785.647 127.49L811.144 125.963L810.279 115.274C809.787 109.181 806.504 101.72 802.643 97.9242C794.912 90.3168 777.561 86.6887 768.037 90.6832ZM878.345 90.7199C874.985 92.0942 868.454 92.5126 863.835 91.6483L855.435 90.0786V124.054C855.435 155.992 855.802 158.029 861.545 158.029C867.119 158.029 867.654 155.992 867.654 134.697C867.654 109.062 871.05 103.342 886.372 103.156C898.132 103.012 900.857 108.393 901.871 133.735C902.687 154.163 903.408 156.502 908.891 156.502C914.539 156.502 915 154.465 915 129.511C915 103.721 914.618 102.191 906.429 95.1542C897.665 87.6232 889.179 86.2825 878.345 90.7199ZM788.075 102.972C791.127 104.606 794.432 108.042 795.416 110.607C796.888 114.449 794.203 115.274 780.246 115.274C761.961 115.274 759.298 110.958 773.202 103.867C782.171 99.2923 781.294 99.3443 788.075 102.972ZM464.969 108.112C476.882 118.89 468.024 145.813 452.567 145.813C442.774 145.813 433.559 135.961 433.253 125.165C432.722 106.558 451.871 96.2598 464.969 108.112Z" fill="white"/>
</svg>
