<svg width="645" height="126" viewBox="0 0 645 126" fill="none" xmlns="http://www.w3.org/2000/svg">
<path fill-rule="evenodd" clip-rule="evenodd" d="M115 63C115 125.333 115.021 126 117 126C118.979 126 119 125.333 119 63C119 0.667 118.979 0 117 0C115.021 0 115 0.667 115 63ZM23.683 21.805L0 35.441V63.088V90.735L23.659 104.413L47.318 118.091L69.409 105.387C81.559 98.4 92.287 92.196 93.25 91.601C94.849 90.613 94.999 88.139 94.986 63.009L94.972 35.5L75.809 24.5C65.269 18.45 54.557 12.3 52.005 10.834L47.365 8.168L23.683 21.805ZM66.664 30.608L85.038 41.216L84.769 63.264L84.5 85.312L67.5 95.187C58.15 100.619 49.81 105.462 48.966 105.951C47.849 106.598 42.409 103.922 28.966 96.114L10.5 85.389V63.081V40.774L28.5 30.394C38.4 24.685 46.903 20.011 47.395 20.007C47.887 20.003 56.558 24.774 66.664 30.608ZM146.467 40.933C141.41 43.518 139 47.518 139 53.328C139 60.336 142.173 63.383 152.833 66.61C157.6 68.052 162.063 69.686 162.75 70.239C164.72 71.824 164.281 76.779 162.066 77.965C158.567 79.837 151.588 79.154 146.482 76.439L141.667 73.879L139.083 76.502L136.5 79.125L139.5 81.552C143.508 84.794 150.273 87 156.21 87C165.556 87 171.873 82.306 172.727 74.728C173.671 66.353 169.267 61.96 156.614 58.656C147.596 56.301 144.996 53.004 149 49C151.652 46.348 157.148 46.409 162.815 49.152L167.261 51.305L169.108 48.902C171.823 45.372 171.458 44.275 166.779 41.887C160.615 38.743 151.584 38.318 146.467 40.933ZM235.137 40.308C233.287 41.011 230.018 43.06 227.872 44.862C214.527 56.066 216.952 76.937 232.483 84.536C243.786 90.065 257.877 86.222 264.281 75.863C271.594 64.035 267.077 47.745 254.711 41.351C250.613 39.231 239.525 38.641 235.137 40.308ZM448.748 40.427C438.949 43.924 433.01 52.644 433.032 63.5C433.047 70.973 435.375 76.317 440.713 81.129C445.965 85.865 450.599 87.305 459.048 86.827C467.097 86.373 472.463 83.262 477.456 76.159C479.992 72.55 480.525 70.732 480.833 64.642C481.075 59.836 480.712 56.25 479.75 53.955C474.818 42.182 460.877 36.098 448.748 40.427ZM178 44V48H184.978H191.957L192.228 67.25L192.5 86.5H196.5H200.5L200.772 67.25L201.043 48H208.522H216V44V40H197H178V44ZM277.232 63.25L277.5 86.5H281.5H285.5L285.791 78.197L286.083 69.894L290.788 70.197C295.443 70.497 295.557 70.59 301.36 78.75C307.182 86.938 307.26 87 311.613 87C314.162 87 316 86.535 316 85.89C316 85.279 313.837 81.792 311.193 78.14C304.4 68.757 304.557 69.281 308.012 67.494C314.497 64.14 317.203 53.538 313.272 46.883C310.09 41.497 305.064 40 290.166 40H276.963L277.232 63.25ZM324.19 43.75L324.5 47.5L336.798 48L349.097 48.5L335.998 64.43C324.707 78.164 322.942 80.784 323.2 83.43L323.5 86.5L342.25 86.772L361 87.044V83.051V79.058L347.891 78.779L334.781 78.5L347.891 62.554C358.84 49.235 361 46.063 361 43.304V40H342.44H323.879L324.19 43.75ZM391.232 63.25L391.5 86.5L395.25 86.81L399 87.121V79.703V72.286L406.959 71.74C412.704 71.347 416.085 70.541 419.11 68.847C429.753 62.886 429.67 47.74 418.964 42.25C415.145 40.291 413.047 40 402.77 40H390.963L391.232 63.25ZM485 40.804C485 41.247 488.519 51.709 492.82 64.054L500.64 86.5H504.482H508.325L513.05 72.361C515.649 64.585 518.167 57.525 518.644 56.672C519.263 55.565 521.063 59.687 524.927 71.06L530.342 87H534.171C536.277 87 538 86.822 538 86.605C538 86.387 541.592 75.788 545.983 63.05L553.965 39.892L549.264 40.196L544.564 40.5L539.414 56.5C536.447 65.72 533.997 71.864 533.632 71C533.283 70.175 530.824 62.975 528.167 55L523.336 40.5L519.355 40.202L515.375 39.903L510.038 56.664L504.701 73.424L499.319 56.712L493.936 40H489.468C487.011 40 485 40.362 485 40.804ZM562 63.524V87.047L579.25 86.774L596.5 86.5L596.81 82.75L597.121 79H583.56H570V73V67H581.5H593V63V59H581.5H570V53.5V48H583H596V44V40H579H562V63.524ZM606.232 63.25L606.5 86.5L610.209 86.808L613.917 87.116L614.209 78.808L614.5 70.5L619.102 70.201L623.704 69.903L629.605 78.201C635.5 86.491 635.512 86.5 640.383 86.81C646.243 87.183 646.221 87.023 639.054 77.169C633.862 70.031 633.031 68 635.304 68C636.021 68 638.158 66.4 640.054 64.444C643.187 61.212 643.5 60.356 643.5 55.018C643.5 48.215 641.405 44.544 635.929 41.752C633.175 40.347 629.887 40.003 619.232 40.002L605.963 40L606.232 63.25ZM251.802 49.702C256.063 52.883 258.008 56.262 258.602 61.514C259.982 73.72 247.561 82.961 237.069 77.536C225.037 71.314 225.607 53.259 238 48.067C241.545 46.582 248.77 47.438 251.802 49.702ZM465.749 49.821C469.722 52.651 472.001 57.695 471.996 63.651C471.984 79.664 451.449 85.015 443.791 71C441.236 66.325 441.718 57.609 444.769 53.325C449.362 46.874 459.283 45.217 465.749 49.821ZM304.056 49.844C307.02 52.244 307.104 57.34 304.227 60.217C302.537 61.907 300.528 62.416 294.06 62.79L286 63.257V55.628V48H293.889C300.066 48 302.273 48.4 304.056 49.844ZM415.365 50.073C417.296 51.591 418 53.061 418 55.573C418 61.599 412.745 64.58 403.456 63.823L399.5 63.5L399.208 55.75L398.916 48H405.823C411.297 48 413.277 48.43 415.365 50.073ZM633 50C634.111 51.111 635 53.333 635 55C635 60.776 629.683 63.457 619.497 62.815L614.5 62.5L614.206 55.25L613.912 48H622.456C629.667 48 631.312 48.312 633 50ZM20.557 61.75C18.5 66.563 16.585 71.063 16.301 71.75C15.966 72.564 16.704 73 18.414 73C20.248 73 21.387 72.244 22.182 70.5C23.049 68.596 24.08 68 26.5 68C28.92 68 29.951 68.596 30.818 70.5C32.058 73.222 36 73.996 36 71.518C36 70.703 34.229 66.203 32.065 61.518C26.793 50.108 25.523 50.134 20.557 61.75ZM45 63C45 72.943 45.044 73.133 47.25 72.82C49.403 72.514 49.5 72.091 49.5 63C49.5 53.909 49.403 53.486 47.25 53.18C45.044 52.867 45 53.057 45 63ZM64.813 57.25C64.537 60.116 64.146 60.504 61.5 60.532C59.177 60.558 58.428 61.065 58.18 62.782C57.902 64.718 58.315 65 61.43 65C64.843 65 65 65.154 65 68.5C65 71.333 65.381 72 67 72C68.619 72 69 71.333 69 68.5C69 65.154 69.157 65 72.57 65C75.685 65 76.098 64.718 75.82 62.782C75.572 61.065 74.823 60.558 72.5 60.532C69.854 60.504 69.463 60.116 69.187 57.25C68.955 54.851 68.383 54 67 54C65.617 54 65.045 54.851 64.813 57.25ZM26.905 63.854C25.428 64.362 24.677 63.332 25.525 61.96C26.063 61.09 26.468 61.137 27.093 62.143C27.588 62.94 27.511 63.646 26.905 63.854Z" fill="white"/>
</svg>
