<svg width="73" height="30" viewBox="0 0 73 30" fill="none" xmlns="http://www.w3.org/2000/svg">
<path d="M18.7529 23.2366V11.9138H16.1535V23.2366C16.1535 25.1963 14.5752 26.7516 12.6566 26.7516C10.7071 26.7516 9.15981 25.1652 9.15981 23.2366V11.9138H6.56041V23.2366C6.56041 26.6272 9.2836 29.3646 12.6566 29.3646C16.0297 29.3646 18.7529 26.5961 18.7529 23.2366ZM38.3722 11.0428C36.2679 11.0428 34.3802 12.0693 33.2043 13.6558C32.0284 12.0693 30.1407 11.0428 28.0365 11.0428C24.4777 11.0428 21.5689 13.9668 21.5689 17.5441V28.4936H24.1373V17.5441C24.1373 15.3977 25.8703 13.6558 28.0055 13.6558C30.1407 13.6558 31.8737 15.3977 31.8737 17.5441V28.4936H34.4731V17.5441C34.4731 15.3977 36.206 13.6558 38.3412 13.6558C40.4765 13.6558 42.2094 15.3977 42.2094 17.5441V28.4936H44.8088V17.5441C44.8398 13.9668 41.9309 11.0428 38.3722 11.0428ZM68.6677 17.513C68.6677 13.9357 65.7588 11.0117 62.2001 11.0117C58.6414 11.0117 55.7325 13.9357 55.7325 17.513V28.4625H58.3319V17.513C58.3319 15.3666 60.0649 13.6246 62.2001 13.6246C64.3353 13.6246 66.0683 15.3666 66.0683 17.513V28.4625H68.6677V17.513ZM51.8644 11.8827H49.2649V28.4936H51.8644V11.8827ZM2.59941 3.57724H0V28.4936H2.59941V3.57724Z" fill="white"/>
<path d="M71.7931 10.4829L58.4867 2.8618L45.1492 10.4829L43.9424 8.30544L58.4867 0L73 8.30544L71.7931 10.4829Z" fill="#F4B54A"/>
</svg>
